/* XPM */
static char *_509868a08da4411b17ac5f46d40ba58bFnmc5F6fvrxHU8Z[] = {
/* columns rows colors chars-per-pixel */
"32 32 8 1 ",
"  c None",
". c black",
"X c #C30000",
"o c red",
"O c #FFB4B4",
"+ c #FFA5A5",
"@ c #B40000",
"# c white",
/* pixels */
"                                ",
"                                ",
"                                ",
"                                ",
"                                ",
"                                ",
"                                ",
"                                ",
"         ....       ....        ",
"        .XXoo.     .oooo.       ",
"       .Xooooo.   .oooooo.      ",
"      .Xooooooo...ooooOooo.     ",
"      .Xooooooooooooooo+oo.     ",
"      .Xoooooooooooooooooo.     ",
"      .Xoooooooooooooooooo.     ",
"      .XXooooooooooooooooo.     ",
"       .XXooooooooooooooo.      ",
"        .XXooooooooooooo.       ",
"         .XXooooooooooo.        ",
"          .XXooooooooo.         ",
"           .XXooooooo.          ",
"            .XXooooo.           ",
"             .@Xooo.            ",
"              .XXo.             ",
"               .X.              ",
"                .               ",
"                                ",
"                                ",
"                                ",
"                                ",
"                                ",
"                                "
};
