/* XPM */
static char *_3694ed0475142f9d148e4686cd96d79hBrYtP91l2cnzEDG[] = {
/* columns rows colors chars-per-pixel */
"32 32 185 2 ",
"   c None",
".  c #1B1C2D",
"X  c #201E2F",
"o  c #211F31",
"O  c #262435",
"+  c #2F2439",
"@  c #2C2635",
"#  c #37293F",
"$  c #3A333A",
"%  c #493C3E",
"&  c #3D2C43",
"*  c #353444",
"=  c #3B3342",
"-  c #3B3844",
";  c #3D3C4A",
":  c #4C364C",
">  c #4D384D",
",  c #583956",
"<  c #462E4A",
"1  c #61395D",
"2  c #6A3C63",
"3  c #4A4248",
"4  c #584944",
"5  c #554949",
"6  c #454553",
"7  c #4D4C5A",
"8  c #4C4751",
"9  c #4F515E",
"0  c #50515E",
"q  c #6B5A52",
"w  c #6D635F",
"e  c #5B5965",
"r  c #585764",
"t  c #6E4A64",
"y  c #734C65",
"u  c #744767",
"i  c #685B6C",
"p  c #7A5668",
"a  c #7D5772",
"s  c #6E6562",
"d  c #67646D",
"f  c #666773",
"g  c #787478",
"h  c #8F695F",
"j  c #93725D",
"k  c #874977",
"l  c #865676",
"z  c #895F64",
"x  c #877164",
"c  c #887265",
"v  c #9A7D63",
"b  c #92647E",
"n  c #A07D60",
"m  c #DA7949",
"M  c #DB7E54",
"N  c #AA8764",
"B  c #B18A64",
"V  c #A48B75",
"C  c #B08E70",
"Z  c #AB9175",
"A  c #DE8459",
"S  c #DE8758",
"D  c #E18F5E",
"F  c #E18F62",
"G  c #E49262",
"H  c #E69A68",
"J  c #E19575",
"K  c #D9A974",
"L  c #ECA573",
"P  c #EAAA7E",
"I  c #EBB57C",
"U  c #EDAE75",
"Y  c #757482",
"T  c #7F7A88",
"R  c #954F81",
"E  c #9B5385",
"W  c #A7588D",
"Q  c #AC5891",
"!  c #A36788",
"~  c #BA7896",
"^  c #BE6B9C",
"/  c #C27B9D",
"(  c #D673AE",
")  c #CB7CA2",
"_  c #EA6EBC",
"`  c #EA73BC",
"'  c #E87BBA",
"]  c #F07AC1",
"[  c #7E818B",
"{  c #8E8D97",
"}  c #888792",
"|  c #908F98",
" . c #95949D",
".. c #989294",
"X. c #8E8B8F",
"o. c #AD9E8B",
"O. c #A49586",
"+. c #B29E84",
"@. c #B08F9D",
"#. c #9A9AA3",
"$. c #BF84A1",
"%. c #A09FA7",
"&. c #A09FA8",
"*. c #A2A2AC",
"=. c #ACB2B8",
"-. c #B4B4BA",
";. c #B2B8BE",
":. c #D9AB81",
">. c #DCB589",
",. c #DCBC93",
"<. c #E7A98C",
"1. c #E8AB8D",
"2. c #EABB87",
"3. c #F2BE8C",
"4. c #F4BB84",
"5. c #E6B597",
"6. c #DB97B4",
"7. c #C890AA",
"8. c #E985B8",
"9. c #F48DBE",
"0. c #F186BD",
"q. c #E99ABA",
"w. c #F494BD",
"e. c #F89ABF",
"r. c #ECBBA5",
"t. c #ECA0BF",
"y. c #F2C48C",
"u. c #F8C68D",
"i. c #E1C398",
"p. c #F4C694",
"a. c #F6CD9C",
"s. c #F8CA94",
"d. c #FBD39C",
"f. c #E7C5A8",
"g. c #F6CEA0",
"h. c #FDDBAA",
"j. c #EEC6B5",
"k. c #F0C9B8",
"l. c #B8BCC2",
"z. c #EE87C8",
"x. c #EF8BC8",
"c. c #F08FC8",
"v. c #F796C0",
"b. c #F99BC0",
"n. c #F39AC7",
"m. c #DBAEC2",
"M. c #CDB3C2",
"N. c #F6A6C7",
"B. c #E2BACD",
"V. c #F0BCD8",
"C. c #B9C0C5",
"Z. c #C5C5CA",
"A. c #C6C6CA",
"S. c #CBCDD2",
"D. c #CDD4D7",
"F. c #CFD6D9",
"G. c #D5D6DA",
"H. c #DADADD",
"J. c #D5D6DA",
"K. c #DBC4D2",
"L. c #EAC7D8",
"P. c #FBCBDE",
"I. c #F6C4DB",
"U. c #F2D1C4",
"Y. c #F7E3DB",
"T. c #D7DFE2",
"R. c #DBDDE1",
"E. c #EFD3E1",
"W. c #FCDBED",
"Q. c #F6D8E5",
"!. c #FCDEF0",
"~. c #DCE3E6",
"^. c #E4EAEC",
"/. c #E8E8EA",
"(. c #E7E7E9",
"). c #FEE2EE",
"_. c #FAECE7",
"`. c #E9EEF0",
"'. c #FFECF4",
"]. c #EEF2F4",
"[. c #F2F5F6",
"{. c #F6F7F8",
"}. c #FBF6F9",
"|. c #F7F9F9",
" X c #FDFDFD",
/* pixels */
"                                                                ",
"              O O O                         O O O               ",
"            f } | { r                     7 [ {  .g             ",
"          e =.[. X{.#.r                 7 } T.|.|.Z.f           ",
"        * =.]. X X X{.{ X             X f C.~.[. X XZ.-         ",
"        * =.[. X X X|.%.; ; ; ; ; ; ; ; 6 [ T.^.{. XS.*         ",
"        ; ;.[. X X X XR.-.-.-.-.-.-.-.-.-.Z.^.`.|. XS.6         ",
"      6 { H.].`.]. X|.D.*.*.*.*.*.*.*.*.*.*.#.&.H.|./.%.7       ",
"      0 J.|.`.T.~.|.S...x x x x x x x x x c x c %.J. X[.e       ",
"      9 D.|.].^.~.Z.X.C 4.y.y.y.y.y.y.y.I H L 2.V ..H.(.e       ",
"      9 D.|.|.|.H.e N I y.p.p.p.p.a.h.a.L S F 3.2.V } H.e       ",
"      9 D.|.[.[.G.3 B s.3.S S F S G g.H 1.U.k.G 4.O.Y H.e       ",
"      9 D.|.|.|.G.8 B d.3.m <.r.J m p.A 5. X_.M P o.Y H.e       ",
"      9 D.|. X XG.8 B d.3.M Y. Xj.M p.S 5. X_.A P o.Y H.e       ",
"      9 D.|. X XG.3 B d.p.D r.j.<.G a.H P j.r.D 3.o.Y H.e       ",
"      9 D.|. X XR.d v 2.d.4.H G L u.h.s.L G H I 5.O.{ H.e       ",
"      0 F.|. X X[.l.g v >.i.>.:.>.i.f.i.>.:.:.,.O. .D./.e       ",
"      9 D.{. X X X[.l.g q w s s s s w s s s s s | S.|./.e       ",
"      6 T B.'. X X X|.Z. . . . . . . . . . . .#.D.).B.X.7       ",
"        = b m.W.W.W.}. X|.|.|.|.|.|.|.|.|.|.|.).W.m.b =         ",
"          + a $.7.N.Q.).).W.W.W.W.W.W.W.W.!.Q.7.$.l +           ",
"          # > , p 8.N.N.N.c.x.z.z.z.z.x.x.n.q.p : & #           ",
"        & ! ~ ~ / ' w.e.w.9.9.' _ _ ` 0.9.w.w./ , , R &         ",
"      3 j p y ! ( k ) b.e.e.e.w.' ` 0.w.e.e.b.w.y & y j 3       ",
"      5 >.Z x z l T M.I.L.P.P.P.I.V.P.P.P.I.V.B.i % n K 4       ",
"      5 +.+.C h a M.Q.Q.E.).).).).).).).).Q.L.K.i 4 N N 4       ",
"        - - $ u ( n.N.q.6.6.6.6.6.6.6.6.6.q.N.t.t @ $ $         ",
"            . 2 ' v.b.! > > > > > > > : > l w.w.t .             ",
"            . 2 ' v.0.k X             X 1 ^ w.8.t .             ",
"            . 2 ` 0.W 1               o k ] ' E ,               ",
"              1 W W ,                   u Q E <                 ",
"                + +                     + + +                   "
};
