/* XPM */
static char *_1c1db1cf9d94c808cfad1bc1a1f6cd1KKtXF6vQrWVC6dLQ[] = {
/* columns rows colors chars-per-pixel */
"32 32 152 2 ",
"   c #060605",
".  c #080807",
"X  c #0B0B09",
"o  c #11110F",
"O  c #151513",
"+  c #191916",
"@  c #1C1C19",
"#  c #262624",
"$  c #2A2A27",
"%  c #2C2C2B",
"&  c #32322E",
"*  c #353532",
"=  c #3B3B35",
"-  c #3E3E39",
";  c #43433D",
":  c #49493F",
">  c #474741",
",  c #4C4C44",
"<  c #4E4E44",
"1  c #4F4F44",
"2  c #4F4F45",
"3  c #4D4D46",
"4  c #4E4E46",
"5  c #4F4F46",
"6  c #4E4E47",
"7  c #4F4F47",
"8  c #4B4B44",
"9  c #4F4F48",
"0  c #4F4F48",
"q  c #505044",
"w  c #505046",
"e  c #515146",
"r  c #515147",
"t  c #535347",
"y  c #505048",
"u  c #515148",
"i  c #505049",
"p  c #515149",
"a  c #525248",
"s  c #535348",
"d  c #535349",
"f  c #51514A",
"g  c #52524A",
"h  c #545448",
"j  c #545449",
"k  c #555549",
"l  c #55554A",
"z  c #54544B",
"x  c #56564A",
"c  c #56564B",
"v  c #57574B",
"b  c #54544C",
"n  c #55554C",
"m  c #55554D",
"M  c #56564C",
"N  c #57574C",
"B  c #57574D",
"V  c #56564E",
"C  c #57574E",
"Z  c #54544A",
"A  c #58584B",
"S  c #58584C",
"D  c #58584D",
"F  c #59594D",
"G  c #5A5A4D",
"H  c #58584E",
"J  c #58584F",
"K  c #5A5A4E",
"L  c #5B5B4F",
"P  c #5C5C4F",
"I  c #59594E",
"U  c #5A5A50",
"Y  c #5B5B50",
"T  c #5C5C50",
"R  c #5C5C51",
"E  c #5D5D51",
"W  c #5E5E51",
"Q  c #5C5C52",
"!  c #5D5D52",
"~  c #5D5D53",
"^  c #5F5F52",
"/  c #5E5E53",
"(  c #5F5F53",
")  c #5F5F54",
"_  c #5D5D52",
"`  c #606053",
"'  c #616153",
"]  c #606054",
"[  c #616155",
"{  c #626255",
"}  c #616156",
"|  c #626256",
" . c #636356",
".. c #626257",
"X. c #636357",
"o. c #646456",
"O. c #646457",
"+. c #656557",
"@. c #666657",
"#. c #616155",
"$. c #646458",
"%. c #656558",
"&. c #656559",
"*. c #666658",
"=. c #666659",
"-. c #676759",
";. c #66665A",
":. c #67675A",
">. c #67675B",
",. c #666659",
"<. c #68685A",
"1. c #69695B",
"2. c #68685C",
"3. c #69695C",
"4. c #6A6A5C",
"5. c #6B6B5C",
"6. c #6A6A5D",
"7. c #6B6B5D",
"8. c #6B6B5E",
"9. c #6C6C5E",
"0. c #6D6D5E",
"q. c #6D6D5F",
"w. c #6E6E5F",
"e. c #6B6B5D",
"r. c #6D6D60",
"t. c #6E6E60",
"y. c #6F6F60",
"u. c #6F6F61",
"i. c #6F6F60",
"p. c #707061",
"a. c #717161",
"s. c #717162",
"d. c #727262",
"f. c #727263",
"g. c #737363",
"h. c #737364",
"j. c #747464",
"k. c #757564",
"l. c #747465",
"z. c #757565",
"x. c #767665",
"c. c #767666",
"v. c #777766",
"b. c #777767",
"n. c #737364",
"m. c #787867",
"M. c #787868",
"N. c #797968",
"B. c #7A7A69",
"V. c #7C7C6B",
"C. c #7A7A69",
"Z. c #898975",
/* pixels */
"v r < a - % $ # $ * * = ; : v @ = H H H Q H > * * = - - - - : + ",
"< Q 8 [ a - * & * * * > < a a X ; 8.8.p.p.q.u.H a 8.8.o.o.Q r X ",
"> v > ` a - * * % * * > 9 < ; X , &.&.q.u.8.p.u.&.p.u.8.&.8.v   ",
"> C < [ C - * % % * * = > C v X ; 8.&.8.p.8.q.p.p.&.C 8 - = *   ",
"; H < > Q ; % % % * - - > C H X * Q &.o.1.1.q.u.8.Q > ; - * $   ",
"- &.< ; a > * * * * - < a Q Q X ; [ q.o.Q &.p.&.Q q.Q < : - %   ",
"= r : = ; - $ % $ $ & = ; < , X & a H < < Q Q , < Q a - = & #   ",
"O X X         .         X .   X X   X X X X X X . X X           ",
"H Q H H v a : o : v r > = & % % % * % % * * * O ; r : H v H P r ",
"V.B.l.l.p.u.v . v l.&.a ; ; ; - > a ; ; 8 C :   = [ ) l.l.8.l.l.",
"q.p.p.q.p.p.Q X r p.Q - = = - - 8 8 > ; > < :   & &.u.l.p.o.1.q.",
"p.l.l.u.u.p.o.X r l.[ > ; - ; ; > > ; ; 8 C ; . : &.[ p.B.p.q.q.",
"u.l.p.m.p.l.[ X < u.a > - * = = * ; ; ; < C -   : [ Q u.l.l.q.8.",
"l.B.l.8.q.l.&.X v C ; - * * * * * - > > a C : . : &.8.&.p.l.p.p.",
"` &.[ r r ` H X = : = * & * = * * % * * - > *   = C H H ` o.o.[ ",
"X X X . . . X X X         .   X .         .   . O   X X X X X o ",
"= > : ; - : v H Q < : ; ; = * O ; v v A v v , : > H Q H Q P A + ",
": &.&.Q a Q q.l.p.p.p.Q C a :   > u.q.p.p.l.&.) [ h.B.l.V.Z.p.X ",
": Q C v < Q 8.q.q.l.q.H a 8 =   > 1.1.8.p.l.&.Q Q q.l.u.[ &.H . ",
"> Q H < > [ p.l.B.B.u.H a 9 =   > q.u.q.p.8.Q a Q 8.l.v < < -   ",
"; H C > > [ q.l.m.B.&.C H C : X : p.l.u.p.&.< a Q Q l.H 8 a -   ",
"= ) Q C v H &.u.p.u.Q Q Q a > X < B.B.p.q.q.a a [ [ l.m.[ a -   ",
"* < > - ; = - > > H < < > : = X : [ Q Q Q v & * - < Q [ o.> &   ",
"o .           . X . X X .     X + . X X X     X       X X X     ",
"* # * ; - = $ X , Q H H a , ; $ % % * ; = ; - O & : , < v : # * ",
"8 = - > ; > =   v V.l.l.l.X.< > > < a Q &.Q > X = a ) &.Q 8 - 8 ",
"< ; ; ; - > =   v B.u.&.) C ; ; < a < [ 1.C , X = C < a ; - ; > ",
": 8 C ; v 1.<   A B.p.8.H v > = = > 8 Q o.H C X ; ) a > ; : ; : ",
": H H < Q &.v X v B.n.p.1.Q 8 ; ; > < [ &.Q H X - > < C a > ; ; ",
"; a [ &.&.&.H X v V.l.l.p.&.C Q [ C o.p.1.8.[ X * a > ) [ 8 ; - ",
"* & ; a a a : . , 1.H Q [ < < v < > < a v v < X & : = < < = * * ",
"        . X   X + . X . X   X           . X . X O       X       "
};
